<?xml version="1.0" encoding="UTF-8"?>
<svg width="117px" height="38px" viewBox="0 0 117 38" version="1.1" xmlns="http://www.w3.org/2000/svg" xmlns:xlink="http://www.w3.org/1999/xlink">
    <title>垂类反白备份</title>
    <g id="垂类反白备份" stroke="none" stroke-width="1" fill="none" fill-rule="evenodd">
        <g id="大logo" transform="translate(0.000000, 1.319885)" fill="#FFFFFF">
            <path d="M58.3516277,13.8820686 C60.4414968,13.9364572 62.393952,15.2431468 63.5581742,17.1428539 C65.3551097,20.1272403 67.7211097,21.7279107 68.5744968,22.5364448 C69.6413355,23.5472175 74.1598839,25.952638 73.1756581,31.2091607 C72.2044323,36.3967289 67.304271,36.6283994 67.304271,36.6283994 C67.304271,36.6283994 65.0116581,36.8735244 61.0630129,35.9182516 C59.9873677,35.6806948 58.9880452,35.5945016 58.1099161,35.5881948 C57.2322065,35.5945016 56.2324645,35.6806948 55.1568194,35.9182516 C51.2085935,36.8735244 48.9159806,36.6283994 48.9159806,36.6283994 C48.9159806,36.6283994 44.0154,36.3967289 43.0445935,31.2091607 C42.0599484,25.952638 46.5784968,23.5472175 47.6453355,22.5364448 C48.4991419,21.7279107 50.8647226,20.1272403 52.6616581,17.1428539 C53.8706581,15.1700812 55.9301097,13.8368198 58.1099161,13.881388 Z M56.8136903,19.9646925 L54.2531097,19.9646925 L54.2511968,23.9416925 L52.0749387,23.942571 L51.8476362,23.9472208 C49.2203353,24.0553482 47.4611968,26.0363412 47.4611968,28.5347755 C47.4611968,31.3375255 49.2078097,33.303571 52.2443581,33.303571 L52.2443581,33.303571 L56.8136903,33.303613 L56.8136903,19.9646925 Z M61.2543226,23.8632732 L58.7767742,23.8632732 L58.7767742,30.4534778 C58.7767742,32.1504323 59.7467419,33.3037391 61.8825161,33.3037391 L61.8825161,33.3037391 L67.1374516,33.3037391 L67.1374516,23.8632732 L64.649,23.8632732 L64.6510968,30.8222164 L62.0863226,30.8222164 C61.6149677,30.8222164 61.2543226,30.5585914 61.2543226,29.6499891 L61.2543226,29.6499891 L61.2543226,23.8632732 Z M54.2511968,26.4136925 L54.2501968,30.8166925 L52.1223258,30.8174232 L51.9563192,30.8116365 C50.7588312,30.7273077 50.0037452,29.7333086 50.0037452,28.6192869 L50.0037452,28.6192869 L50.0081361,28.4689062 C50.0723672,27.3718761 50.8375684,26.4140028 52.0585839,26.4140028 L52.0585839,26.4140028 L54.2511968,26.4136925 Z" id="形状结合"></path>
            <path d="M45.8686968,19.4735596 C48.5576,19.1035596 49.4944387,16.3550482 49.2189226,13.7154346 C48.9752774,11.381071 47.4106645,8.72169596 44.8383419,8.95462777 C42.3633097,9.1791505 40.8347613,11.6203096 40.8506968,14.48823 C40.8653742,17.2152982 42.753729,19.9028437 45.8686968,19.4735596" id="Fill-3"></path>
            <path d="M53.3634484,10.9702448 C56.0209,10.7175516 56.9665452,7.98417664 56.9036419,5.29873346 C56.834029,2.34209709 55.2165774,-0.0301074535 52.6677387,0.106119819 C50.4011258,0.227210728 48.5719,2.51069936 48.4788032,5.54680164 C48.3815129,8.71913118 50.4103516,11.2511085 53.3634484,10.9702448" id="Fill-5"></path>
            <path d="M70.351429,19.4735596 C67.6625258,19.1035596 66.7256871,16.3550482 67.0012032,13.7154346 C67.2448484,11.381071 68.8094613,8.72169596 71.3817839,8.95462777 C73.8568161,9.1791505 75.3853645,11.6203096 75.369429,14.48823 C75.3547516,17.2152982 73.4663968,19.9028437 70.351429,19.4735596" id="Fill-7"></path>
            <path d="M62.8566774,10.9702448 C60.1992258,10.7175516 59.2531613,7.98417664 59.3164839,5.29873346 C59.3860968,2.34209709 61.003129,-0.0301074535 63.5523871,0.106119819 C65.819,0.227210728 67.6482258,2.51069936 67.7413226,5.54680164 C67.8390323,8.71913118 65.8093548,11.2511085 62.8566774,10.9702448" id="Fill-9"></path>
            <path d="M34.4206452,20.0986914 L38.4644839,20.0986914 L38.4644839,16.5677141 L34.4206452,16.5677141 L34.4206452,20.0986914 Z M34.4206452,35.5289528 L38.4644839,35.5289528 L38.4644839,21.6400778 L34.4206452,21.6400778 L34.4206452,35.5289528 Z" id="Fill-17"></path>
            <path d="M27.8462935,21.6294403 L19.2176484,21.6294403 L19.2176484,24.5469744 L26.7865839,24.5469744 C27.8760677,24.5469744 28.5851968,25.1343494 28.5851968,26.1215766 L28.5851968,27.1500085 L22.2634226,27.1500085 C19.8324226,27.1500085 18.1327774,28.6199175 18.1327774,31.3406789 C18.1327774,34.2561107 19.8634548,35.5729744 22.2634226,35.5729744 L32.4789065,35.5729744 L32.4789065,25.623338 C32.4789065,23.2393607 30.5897129,21.6294403 27.8462935,21.6294403 L27.8462935,21.6294403 Z M28.5851968,32.8261448 L23.2388419,32.8261448 C22.4995194,32.8261448 21.9203903,32.3001562 21.9203903,31.3406789 C21.9203903,30.5149062 22.4974226,29.8468039 23.3201968,29.8468039 L28.5851968,29.8468039 L28.5851968,32.8261448 Z" id="Fill-19"></path>
            <path d="M17.1621387,30.6499141 C17.1621387,28.36138 16.0344935,26.6400391 14.2400742,26.1014369 C15.8353,25.4190391 16.5020742,24.0584482 16.5020742,21.8582096 C16.5020742,18.9814596 14.1092355,16.4419141 9.22459032,16.4419141 L4.19354839e-05,16.4419141 L4.19354839e-05,35.7306869 L10.2012677,35.7306869 C14.7567194,35.7306869 17.1621387,33.9626755 17.1621387,30.6499141 M9.96936452,32.1551414 L9.96936452,32.1551414 L4.23175161,32.1551414 L4.23175161,27.9955846 L9.94084839,27.9955846 C11.4333323,27.9955846 12.4645258,28.7780505 12.4645258,30.114255 C12.4645258,31.4504596 11.4572355,32.1551414 9.96936452,32.1551414 M9.73200968,24.2085505 L4.23175161,24.2085505 L4.23175161,20.2045619 L9.71733226,20.2045619 C11.2639129,20.2045619 12.1781065,20.9315278 12.1781065,22.0978687 C12.1781065,23.6522891 11.2613968,24.2085505 9.73200968,24.2085505" id="Fill-20"></path>
        </g>
        <path d="M95.796875,36.890625 L95.796875,34.5703125 L93.734375,34.5703125 C93.2760417,34.6276042 93.0755208,34.3984375 93.1328125,33.8828125 L93.1328125,33.8828125 L93.1328125,26.921875 L94.3359375,26.921875 C95.3671875,26.9791667 95.8828125,26.4348958 95.8828125,25.2890625 L95.8828125,25.2890625 L95.8828125,21.8515625 L93.1328125,21.8515625 L93.1328125,23.9140625 C93.1328125,24.2578125 92.9895833,24.4010417 92.703125,24.34375 L92.703125,24.34375 L87.375,24.34375 L89.0078125,20.6484375 L95.796875,20.6484375 L95.796875,18.2421875 L91.4140625,18.2421875 L91.4140625,17.296875 L88.1484375,17.296875 L88.1484375,18.2421875 L83.9375,18.2421875 L83.9375,20.6484375 L85.9140625,20.6484375 L83.9375,25.03125 L83.9375,26.921875 L90.3828125,26.921875 L90.3828125,35 C90.3255208,36.2604167 90.8984375,36.890625 92.1015625,36.890625 L92.1015625,36.890625 L95.796875,36.890625 Z M83.421875,31.9921875 L83.421875,29.5 L79.5546875,29.5 L84.0234375,21.421875 L81.015625,21.421875 L79.8125,23.5703125 L78.8671875,23.5703125 L82.3046875,17.3828125 L79.3828125,17.3828125 L76.203125,22.96875 L76.203125,25.9765625 L78.609375,25.9765625 L76.203125,30.1015625 L76.203125,31.9921875 L83.421875,31.9921875 Z M86.2578125,36.8046875 C87.3463542,36.9192708 87.9479167,36.3177083 88.0625,35 L88.0625,35 L89.09375,27.6953125 L86.4296875,27.6953125 L85.484375,33.625 C85.4270833,34.3125 85.140625,34.5989583 84.625,34.484375 L84.625,34.484375 L84.0234375,34.484375 L84.0234375,36.8046875 L86.2578125,36.8046875 Z M83.3359375,36.8046875 L83.3359375,34.3984375 L76.203125,34.3984375 L76.203125,36.8046875 L83.3359375,36.8046875 Z M112.543081,36.9765625 L112.543081,26.1484375 L117.097768,26.1484375 L117.097768,23.3984375 L112.543081,23.3984375 L112.543081,17.3828125 L109.105581,17.3828125 L109.105581,23.3984375 L104.379018,23.3984375 L104.379018,26.1484375 L109.105581,26.1484375 L109.105581,36.9765625 L112.543081,36.9765625 Z M104.035268,20.390625 L104.035268,17.46875 L97.332143,17.46875 L97.332143,20.390625 L104.035268,20.390625 Z M99.1368305,35 C99.0222472,36.4322917 99.566518,37.0911458 100.769643,36.9765625 L100.769643,36.9765625 L104.293081,36.9765625 L104.293081,34.484375 L102.746206,34.484375 C102.402456,34.5416667 102.230581,34.3411458 102.230581,33.8828125 L102.230581,33.8828125 L102.230581,23.3984375 L97.2462055,23.3984375 L97.2462055,26.234375 L99.1368305,26.234375 L99.1368305,35 Z" id="统计" fill="#FFFFFF" fill-rule="nonzero"></path>
    </g>
</svg>